<mxfile host="app.diagrams.net" agent="Mozilla/5.0 (Windows NT 10.0; Win64; x64) AppleWebKit/537.36 (KHTML, like Gecko) Chrome/132.0.0.0 Safari/537.36" version="26.0.11">
  <diagram name="Página-1" id="0GbYW-Dmfk2oEydlXNNZ">
    <mxGraphModel dx="1195" dy="622" grid="1" gridSize="10" guides="1" tooltips="1" connect="1" arrows="1" fold="1" page="1" pageScale="1" pageWidth="827" pageHeight="1169" math="0" shadow="0">
      <root>
        <mxCell id="0" />
        <mxCell id="1" parent="0" />
        <mxCell id="4oHgwtmd2JQmbN_alHVM-6" value="INÍCIO" style="rounded=1;whiteSpace=wrap;html=1;fillColor=#dae8fc;strokeColor=#6c8ebf;" vertex="1" parent="1">
          <mxGeometry x="354" y="345" width="120" height="60" as="geometry" />
        </mxCell>
        <mxCell id="4oHgwtmd2JQmbN_alHVM-13" value="" style="edgeStyle=orthogonalEdgeStyle;rounded=0;orthogonalLoop=1;jettySize=auto;html=1;" edge="1" parent="1" source="4oHgwtmd2JQmbN_alHVM-9" target="4oHgwtmd2JQmbN_alHVM-12">
          <mxGeometry relative="1" as="geometry" />
        </mxCell>
        <mxCell id="4oHgwtmd2JQmbN_alHVM-9" value="Nota 1&lt;br&gt;Nota 2" style="shape=parallelogram;perimeter=parallelogramPerimeter;whiteSpace=wrap;html=1;fixedSize=1;fillColor=#dae8fc;strokeColor=#6c8ebf;" vertex="1" parent="1">
          <mxGeometry x="354" y="445" width="120" height="60" as="geometry" />
        </mxCell>
        <mxCell id="4oHgwtmd2JQmbN_alHVM-15" value="" style="edgeStyle=orthogonalEdgeStyle;rounded=0;orthogonalLoop=1;jettySize=auto;html=1;" edge="1" parent="1" source="4oHgwtmd2JQmbN_alHVM-12" target="4oHgwtmd2JQmbN_alHVM-14">
          <mxGeometry relative="1" as="geometry" />
        </mxCell>
        <mxCell id="4oHgwtmd2JQmbN_alHVM-12" value="Média = (nota 1 + nota 2) /2" style="whiteSpace=wrap;html=1;fillColor=#dae8fc;strokeColor=#6c8ebf;" vertex="1" parent="1">
          <mxGeometry x="329" y="545" width="170" height="60" as="geometry" />
        </mxCell>
        <mxCell id="4oHgwtmd2JQmbN_alHVM-20" value="" style="edgeStyle=orthogonalEdgeStyle;rounded=0;orthogonalLoop=1;jettySize=auto;html=1;" edge="1" parent="1" source="4oHgwtmd2JQmbN_alHVM-14" target="4oHgwtmd2JQmbN_alHVM-19">
          <mxGeometry relative="1" as="geometry" />
        </mxCell>
        <mxCell id="4oHgwtmd2JQmbN_alHVM-14" value="&quot;Média =&quot;, media" style="shape=document;whiteSpace=wrap;html=1;boundedLbl=1;fillColor=#dae8fc;strokeColor=#6c8ebf;" vertex="1" parent="1">
          <mxGeometry x="354" y="645" width="120" height="80" as="geometry" />
        </mxCell>
        <mxCell id="4oHgwtmd2JQmbN_alHVM-19" value="FIM" style="rounded=1;whiteSpace=wrap;html=1;fillColor=#dae8fc;strokeColor=#6c8ebf;" vertex="1" parent="1">
          <mxGeometry x="354" y="765" width="120" height="60" as="geometry" />
        </mxCell>
        <mxCell id="4oHgwtmd2JQmbN_alHVM-21" value="" style="endArrow=classic;html=1;rounded=0;exitX=0.5;exitY=1;exitDx=0;exitDy=0;entryX=0.5;entryY=0;entryDx=0;entryDy=0;" edge="1" parent="1" source="4oHgwtmd2JQmbN_alHVM-6" target="4oHgwtmd2JQmbN_alHVM-9">
          <mxGeometry width="50" height="50" relative="1" as="geometry">
            <mxPoint x="530" y="465" as="sourcePoint" />
            <mxPoint x="580" y="415" as="targetPoint" />
          </mxGeometry>
        </mxCell>
      </root>
    </mxGraphModel>
  </diagram>
</mxfile>
